/* XPM */
static char *_8d51891e2854193cea3e88f73e7fd4ciV2hAADpwKKbw9TX[] = {
/* columns rows colors chars-per-pixel */
"16 16 2 1 ",
"  c #A44E3B",
". c #BB604F",
/* pixels */
"                ",
" .............. ",
" .............. ",
" .............. ",
" .............. ",
" .............. ",
" .............. ",
" .............. ",
" .............. ",
" .............. ",
" .............. ",
" .............. ",
" .............. ",
" .............. ",
" .............. ",
"                "
};
